<svg xmlns="http://www.w3.org/2000/svg" viewBox="0 0 128 128">
  <rect width="128" height="128" rx="28" fill="#ffffff"/>
  <path d="M64 20c15 13 24 26 24 39 0 17-11 29-24 29S40 76 40 59c0-13 9-26 24-39Z" fill="#1188a0"/>
  <path d="M64 20c-3 17-1 39 0 68-13 0-24-12-24-29 0-13 9-26 24-39Z" fill="#6f2c7f" opacity=".82"/>
  <path d="M25 62c15 2 28 10 39 25 11-15 24-23 39-25-5 24-20 39-39 43-19-4-34-19-39-43Z" fill="#6fb8c8"/>
  <path d="M25 62c16 5 29 14 39 25-15 8-31 4-39-25Z" fill="#6f2c7f" opacity=".88"/>
  <path d="M64 87c10-11 23-20 39-25-8 29-24 33-39 25Z" fill="#1188a0" opacity=".86"/>
</svg>
